<svg width="1280" height="360" viewBox="0 0 1280 360" fill="none" xmlns="http://www.w3.org/2000/svg">
  <defs>
    <linearGradient id="bg" x1="0" y1="0" x2="1280" y2="360" gradientUnits="userSpaceOnUse">
      <stop stop-color="#090808"/>
      <stop offset="0.52" stop-color="#0D1117"/>
      <stop offset="1" stop-color="#164E63"/>
    </linearGradient>
    <radialGradient id="glow" cx="0" cy="0" r="1" gradientUnits="userSpaceOnUse" gradientTransform="translate(1015 92) rotate(146.9) scale(438 264)">
      <stop stop-color="#38BDF8" stop-opacity="0.38"/>
      <stop offset="1" stop-color="#38BDF8" stop-opacity="0"/>
    </radialGradient>
    <filter id="soft" x="-20%" y="-20%" width="140%" height="140%">
      <feGaussianBlur stdDeviation="16"/>
    </filter>
  </defs>
  <rect width="1280" height="360" rx="0" fill="url(#bg)"/>
  <rect width="1280" height="360" fill="url(#glow)"/>
  <g opacity="0.22">
    <path d="M0 276C145 224 244 328 389 276C535 224 641 124 815 172C988 220 1088 112 1280 158" stroke="#38BDF8" stroke-width="2"/>
    <path d="M0 306C149 246 258 342 405 292C555 242 660 153 825 197C996 242 1109 150 1280 190" stroke="#67E8F9" stroke-width="1"/>
  </g>
  <g opacity="0.08">
    <path d="M70 72H1210" stroke="#E2E8F0"/>
    <path d="M70 132H1210" stroke="#E2E8F0"/>
    <path d="M70 192H1210" stroke="#E2E8F0"/>
    <path d="M70 252H1210" stroke="#E2E8F0"/>
    <path d="M160 34V326" stroke="#E2E8F0"/>
    <path d="M340 34V326" stroke="#E2E8F0"/>
    <path d="M520 34V326" stroke="#E2E8F0"/>
    <path d="M700 34V326" stroke="#E2E8F0"/>
    <path d="M880 34V326" stroke="#E2E8F0"/>
    <path d="M1060 34V326" stroke="#E2E8F0"/>
  </g>
  <g filter="url(#soft)" opacity="0.75">
    <circle cx="1016" cy="108" r="68" fill="#38BDF8" fill-opacity="0.22"/>
  </g>
  <text x="86" y="132" fill="#94A3B8" font-family="JetBrains Mono, Consolas, monospace" font-size="18" letter-spacing="5">HYMNDAVINCI</text>
  <text x="82" y="191" fill="#FFFFFF" font-family="Inter, Segoe UI, Arial, sans-serif" font-size="46" font-weight="800">Muhammad Bintang Kurniawan</text>
  <text x="86" y="238" fill="#CBD5E1" font-family="Inter, Segoe UI, Arial, sans-serif" font-size="22">Web Developer / Automation Builder</text>
  <rect x="86" y="270" width="282" height="38" rx="19" fill="#38BDF8" fill-opacity="0.14" stroke="#38BDF8" stroke-opacity="0.45"/>
  <text x="108" y="295" fill="#E0F2FE" font-family="JetBrains Mono, Consolas, monospace" font-size="15">clean systems · sharp interfaces</text>
  <g transform="translate(1045 104)">
    <rect x="0" y="0" width="122" height="122" rx="26" fill="#020617" fill-opacity="0.58" stroke="#38BDF8" stroke-opacity="0.32"/>
    <text x="28" y="74" fill="#38BDF8" font-family="JetBrains Mono, Consolas, monospace" font-size="48" font-weight="800">{}</text>
  </g>
</svg>
